<svg width="32" height="32" viewBox="0 0 32 32" fill="none" xmlns="http://www.w3.org/2000/svg">
  <rect width="32" height="32" rx="6" fill="#5244df"/>
  <path d="M16 6C12.5 6 10 8.5 10 12C10 13.5 10.5 15 11.5 16C10.5 17 10 18.5 10 20C10 23.5 12.5 26 16 26C19.5 26 22 23.5 22 20C22 18.5 21.5 17 20.5 16C21.5 15 22 13.5 22 12C22 8.5 19.5 6 16 6ZM16 8C18.5 8 20 9.5 20 12C20 13 19.5 14 19 14.5C19.5 15 20 16 20 17C20 19.5 18.5 21 16 21C13.5 21 12 19.5 12 17C12 16 12.5 15 13 14.5C12.5 14 12 13 12 12C12 9.5 13.5 8 16 8Z" fill="white"/>
  <circle cx="14" cy="12" r="1" fill="white"/>
  <circle cx="18" cy="12" r="1" fill="white"/>
  <circle cx="14" cy="20" r="1" fill="white"/>
  <circle cx="18" cy="20" r="1" fill="white"/>
</svg> 